<svg width="512" height="512" viewBox="0 0 512 512" xmlns="http://www.w3.org/2000/svg" role="img" aria-label="가재 avatar">
  <defs>
    <linearGradient id="bg" x1="0" y1="0" x2="1" y2="1">
      <stop offset="0%" stop-color="#0f172a"/>
      <stop offset="100%" stop-color="#1e293b"/>
    </linearGradient>
    <linearGradient id="fur" x1="0" y1="0" x2="1" y2="1">
      <stop offset="0%" stop-color="#f59e0b"/>
      <stop offset="100%" stop-color="#ea580c"/>
    </linearGradient>
  </defs>
  <rect width="512" height="512" rx="120" fill="url(#bg)"/>
  <circle cx="256" cy="280" r="120" fill="url(#fur)"/>
  <path d="M154 206 L110 120 L196 170 Z" fill="#fb923c"/>
  <path d="M358 206 L402 120 L316 170 Z" fill="#fb923c"/>
  <path d="M170 194 L139 137 L193 171 Z" fill="#111827" opacity="0.85"/>
  <path d="M342 194 L373 137 L319 171 Z" fill="#111827" opacity="0.85"/>
  <ellipse cx="208" cy="270" rx="18" ry="24" fill="#111827"/>
  <ellipse cx="304" cy="270" rx="18" ry="24" fill="#111827"/>
  <ellipse cx="256" cy="314" rx="54" ry="42" fill="#fff7ed"/>
  <path d="M236 304 Q256 324 276 304" stroke="#7c2d12" stroke-width="10" fill="none" stroke-linecap="round"/>
  <circle cx="238" cy="302" r="6" fill="#7c2d12"/>
  <circle cx="274" cy="302" r="6" fill="#7c2d12"/>
  <path d="M148 334 Q92 326 66 298" stroke="#fdba74" stroke-width="10" fill="none" stroke-linecap="round" opacity="0.9"/>
  <path d="M364 334 Q420 326 446 298" stroke="#fdba74" stroke-width="10" fill="none" stroke-linecap="round" opacity="0.9"/>
  <text x="256" y="458" text-anchor="middle" font-size="54" font-weight="700" fill="#e5e7eb" font-family="Arial, sans-serif">🦊</text>
</svg>